<?xml version="1.0" encoding="utf-8"?>
<!-- Generator: Adobe Illustrator 16.0.0, SVG Export Plug-In . SVG Version: 6.00 Build 0)  -->
<!DOCTYPE svg PUBLIC "-//W3C//DTD SVG 1.0//EN" "http://www.w3.org/TR/2001/REC-SVG-20010904/DTD/svg10.dtd">
<svg version="1.0" id="Layer_1" xmlns="http://www.w3.org/2000/svg" xmlns:xlink="http://www.w3.org/1999/xlink" x="0px" y="0px"
	 width="960px" height="156.912px" viewBox="0 0 960 156.912" enable-background="new 0 0 960 156.912" xml:space="preserve">
<g>
	<g>
		<rect x="27.891" y="15.917" fill="#272727" width="929.655" height="126.265"/>
		<rect x="35.2" y="34.971" fill="none" width="937.671" height="107.212"/>
		<text transform="matrix(1 0 0 1 35.2007 43.7578)"><tspan x="0" y="0" fill="#00A8E2" font-family="Arial" font-size="12.3759">!</tspan><tspan x="2.846" y="0" fill="#AF57A0" font-family="Arial" font-size="12.3759">function</tspan><tspan x="46.347" y="0" fill="#D0D2D3" font-family="Arial" font-size="12.3759">(a){</tspan><tspan x="62.856" y="0" fill="#66BC55" font-family="Arial" font-size="12.3759">&quot;use strict&quot;</tspan><tspan x="117.321" y="0" fill="#D0D2D3" font-family="Arial" font-size="12.3759">;</tspan><tspan x="119.883" y="0" fill="#AF57A0" font-family="Arial" font-size="12.3759">function </tspan><tspan x="166.007" y="0" fill="#00A8E2" font-family="Arial" font-size="12.3759">b</tspan><tspan x="173.049" y="0" fill="#D0D2D3" font-family="Arial" font-size="12.3759">(a){</tspan><tspan x="189.558" y="0" fill="#AF57A0" font-family="Arial" font-size="12.3759">var</tspan><tspan x="205.523" y="0" fill="#D0D2D3" font-family="Arial" font-size="12.3759"> b</tspan><tspan x="215.188" y="0" fill="#00A8E2" font-family="Arial" font-size="12.3759">=</tspan><tspan x="222.564" y="0" fill="#F15157" font-family="Arial" font-size="12.3759">a</tspan><tspan x="228.529" y="0" fill="#D0D2D3" font-family="Arial" font-size="12.3759">.</tspan><tspan x="231.091" y="0" fill="#F15157" font-family="Arial" font-size="12.3759">length</tspan><tspan x="264.963" y="0" fill="#D0D2D3" font-family="Arial" font-size="12.3759">,d</tspan><tspan x="274.504" y="0" fill="#00A8E2" font-family="Arial" font-size="12.3759">=</tspan><tspan x="281.88" y="0" fill="#F15157" font-family="Arial" font-size="12.3759">c</tspan><tspan x="287.425" y="0" fill="#D0D2D3" font-family="Arial" font-size="12.3759">.</tspan><tspan x="289.986" y="0" fill="#F15157" font-family="Arial" font-size="12.3759">type</tspan><tspan x="313.153" y="0" fill="#D0D2D3" font-family="Arial" font-size="12.3759">(a);</tspan><tspan x="328.709" y="0" fill="#AF57A0" font-family="Arial" font-size="12.3759">return</tspan><tspan x="360.787" y="0" fill="#66BC55" font-family="Arial" font-size="12.3759">&quot;function&quot;</tspan><tspan x="412.629" y="0" fill="#00A8E2" font-family="Arial" font-size="12.3759">!==</tspan><tspan x="430.227" y="0" fill="#D0D2D3" font-family="Arial" font-size="12.3759">d</tspan><tspan x="437.207" y="0" fill="#00A8E2" font-family="Arial" font-size="12.3759">&amp;&amp;!</tspan><tspan x="455.029" y="0" fill="#D0D2D3" font-family="Arial" font-size="12.3759">(</tspan><tspan x="458.543" y="0" fill="#F9AC51" font-family="Arial" font-size="12.3759">1</tspan><tspan x="464.892" y="0" fill="#00A8E2" font-family="Arial" font-size="12.3759">!==</tspan><tspan x="482.491" y="0" fill="#F15157" font-family="Arial" font-size="12.3759">a</tspan><tspan x="488.456" y="0" fill="#D0D2D3" font-family="Arial" font-size="12.3759">.</tspan><tspan x="491.017" y="0" fill="#F15157" font-family="Arial" font-size="12.3759">nodeType</tspan><tspan x="543.081" y="0" fill="#00A8E2" font-family="Arial" font-size="12.3759">||!</tspan><tspan x="551.843" y="0" fill="#D0D2D3" font-family="Arial" font-size="12.3759">b)</tspan><tspan x="562.4" y="0" fill="#00A8E2" font-family="Arial" font-size="12.3759">||</tspan><tspan x="568.316" y="0" fill="#D0D2D3" font-family="Arial" font-size="12.3759">(</tspan><tspan x="571.831" y="0" fill="#66BC55" font-family="Arial" font-size="12.3759">&quot;array&quot;</tspan><tspan x="606.025" y="0" fill="#00A8E2" font-family="Arial" font-size="12.3759">===</tspan><tspan x="628.153" y="0" fill="#D0D2D3" font-family="Arial" font-size="12.3759">d</tspan><tspan x="635.132" y="0" fill="#00A8E2" font-family="Arial" font-size="12.3759">||</tspan><tspan x="641.048" y="0" fill="#66BC55" font-family="Arial" font-size="12.3759">&quot;num  </tspan><tspan x="674.476" y="0" fill="#F15157" font-family="Arial" font-size="12.3759">constructor.</tspan><tspan x="736.588" y="0" fill="#D0D2D3" font-family="Arial" font-size="12.3759"> b</tspan><tspan x="746.254" y="0" fill="#00A8E2" font-family="Arial" font-size="12.3759">&amp;&amp;</tspan><tspan x="761.229" y="0" fill="#D0D2D3" font-family="Arial" font-size="12.3759">b};{</tspan><tspan x="777.862" y="0" fill="#AF57A0" font-family="Arial" font-size="12.3759">return         </tspan><tspan x="833.556" y="0" fill="#F7941E" font-family="Arial" font-size="12.3759">undefined</tspan><tspan x="886.944" y="0" fill="#D0D2D3" font-family="Arial" font-size="12.3759">};</tspan><tspan x="0" y="10.932" fill="#AF57A0" font-family="Arial" font-size="12.3759">if</tspan><tspan x="6.51" y="10.932" fill="#D0D2D3" font-family="Arial" font-size="12.3759">(</tspan><tspan x="10.024" y="10.932" fill="#00A8E2" font-family="Arial" font-size="12.3759">!</tspan><tspan x="12.871" y="10.932" fill="#D0D2D3" font-family="Arial" font-size="12.3759">a.</tspan><tspan x="21.397" y="10.932" fill="#F15157" font-family="Arial" font-size="12.3759">jQuery</tspan><tspan x="55.827" y="10.932" fill="#D0D2D3" font-family="Arial" font-size="12.3759">){</tspan><tspan x="62.856" y="10.932" fill="#AF57A0" font-family="Arial" font-size="12.3759">var</tspan><tspan x="78.821" y="10.932" fill="#D0D2D3" font-family="Arial" font-size="12.3759"> c</tspan><tspan x="86.989" y="10.932" fill="#00A8E2" font-family="Arial" font-size="12.3759">=</tspan><tspan x="94.365" y="10.932" fill="#AF57A0" font-family="Arial" font-size="12.3759">function</tspan><tspan x="137.866" y="10.932" fill="#D0D2D3" font-family="Arial" font-size="12.3759">(a,b){</tspan><tspan x="163.978" y="10.932" fill="#AF57A0" font-family="Arial" font-size="12.3759">return </tspan><tspan x="198.679" y="10.932" fill="#00A8E2" font-family="Arial" font-size="12.3759">new </tspan><tspan x="223.48" y="10.932" fill="#F7941E" font-family="Arial" font-size="12.3759">c.fn.init</tspan><tspan x="261.387" y="10.932" fill="#D0D2D3" font-family="Arial" font-size="12.3759">(a,b)};</tspan><tspan x="290.061" y="10.932" fill="#AF57A0" font-family="Arial" font-size="12.3759">if</tspan><tspan x="296.57" y="10.932" fill="#D0D2D3" font-family="Arial" font-size="12.3759">(</tspan><tspan x="300.085" y="10.932" fill="#00A8E2" font-family="Arial" font-size="12.3759">!</tspan><tspan x="302.931" y="10.932" fill="#D0D2D3" font-family="Arial" font-size="12.3759">a</tspan><tspan x="308.896" y="10.932" fill="#00A8E2" font-family="Arial" font-size="12.3759">||</tspan><tspan x="314.813" y="10.932" fill="#66BC55" font-family="Arial" font-size="12.3759">&quot;object&quot;</tspan><tspan x="355.837" y="10.932" fill="#00A8E2" font-family="Arial" font-size="12.3759">!==</tspan><tspan x="373.436" y="10.932" fill="#F15157" font-family="Arial" font-size="12.3759">c.type</tspan><tspan x="404.708" y="10.932" fill="#D0D2D3" font-family="Arial" font-size="12.3759">(a)</tspan><tspan x="417.703" y="10.932" fill="#00A8E2" font-family="Arial" font-size="12.3759">||</tspan><tspan x="423.619" y="10.932" fill="#F15157" font-family="Arial" font-size="12.3759">a.nodeType</tspan><tspan x="484.21" y="10.932" fill="#00A8E2" font-family="Arial" font-size="12.3759">||</tspan><tspan x="490.126" y="10.932" fill="#F15157" font-family="Arial" font-size="12.3759">c</tspan><tspan x="495.67" y="10.932" fill="#D0D2D3" font-family="Arial" font-size="12.3759">.</tspan><tspan x="498.232" y="10.932" fill="#00A8E2" font-family="Arial" font-size="12.3759">isWindow</tspan><tspan x="549.143" y="10.932" fill="#D0D2D3" font-family="Arial" font-size="12.3759">(a)) </tspan><tspan x="568.276" y="10.932" fill="#AF57A0" font-family="Arial" font-size="12.3759">return</tspan><tspan x="600.354" y="10.932" fill="#00A8E2" font-family="Arial" font-size="12.3759">!</tspan><tspan x="603.201" y="10.932" fill="#F15157" font-family="Arial" font-size="12.3759">1</tspan><tspan x="609.549" y="10.932" fill="#D0D2D3" font-family="Arial" font-size="12.3759">;</tspan><tspan x="612.111" y="10.932" fill="#AF57A0" font-family="Arial" font-size="12.3759">try</tspan><tspan x="626.083" y="10.932" fill="#D0D2D3" font-family="Arial" font-size="12.3759">{</tspan><tspan x="629.598" y="10.932" fill="#AF57A0" font-family="Arial" font-size="12.3759">if</tspan><tspan x="636.107" y="10.932" fill="#D0D2D3" font-family="Arial" font-size="12.3759">(</tspan><tspan x="639.622" y="10.932" fill="#F15157" font-family="Arial" font-size="12.3759">a.cons</tspan><tspan x="672.254" y="10.932" fill="#AF57A0" font-family="Arial" font-size="12.3759">typeof</tspan><tspan x="705.83" y="10.932" fill="#66BC55" font-family="Arial" font-size="12.3759">&quot;num</tspan><tspan x="734.009" y="10.932" fill="#D0D2D3" font-family="Arial" font-size="12.3759">(a,</tspan><tspan x="746.05" y="10.932" fill="#66BC55" font-family="Arial" font-size="12.3759">&quot;constructor&quot;</tspan><tspan x="813.943" y="10.932" fill="#D0D2D3" font-family="Arial" font-size="12.3759">)</tspan><tspan x="817.458" y="10.932" fill="#00A8E2" font-family="Arial" font-size="12.3759">&amp;&amp;!</tspan><tspan x="835.279" y="10.932" fill="#D0D2D3" font-family="Arial" font-size="12.3759">f.</tspan><tspan x="841.454" y="10.932" fill="#00A8E2" font-family="Arial" font-size="12.3759">call</tspan><tspan x="858.804" y="10.932" fill="#D0D2D3" font-family="Arial" font-size="12.3759">(</tspan><tspan x="862.319" y="10.932" fill="#F15157" font-family="Arial" font-size="12.3759">a.constructor</tspan><tspan x="0" y="21.864" fill="#D0D2D3" font-family="Arial" font-size="12.3759">{</tspan><tspan x="3.515" y="21.864" fill="#AF57A0" font-family="Arial" font-size="12.3759">var</tspan><tspan x="19.479" y="21.864" fill="#D0D2D3" font-family="Arial" font-size="12.3759"> b</tspan><tspan x="29.145" y="21.864" fill="#00A8E2" font-family="Arial" font-size="12.3759">=</tspan><tspan x="36.521" y="21.864" fill="#F15157" font-family="Arial" font-size="12.3759">a</tspan><tspan x="42.486" y="21.864" fill="#D0D2D3" font-family="Arial" font-size="12.3759">.</tspan><tspan x="45.047" y="21.864" fill="#F15157" font-family="Arial" font-size="12.3759">length</tspan><tspan x="78.919" y="21.864" fill="#D0D2D3" font-family="Arial" font-size="12.3759">,d</tspan><tspan x="88.461" y="21.864" fill="#00A8E2" font-family="Arial" font-size="12.3759">=</tspan><tspan x="95.837" y="21.864" fill="#F15157" font-family="Arial" font-size="12.3759">c</tspan><tspan x="101.381" y="21.864" fill="#D0D2D3" font-family="Arial" font-size="12.3759">.</tspan><tspan x="103.943" y="21.864" fill="#F15157" font-family="Arial" font-size="12.3759">type</tspan><tspan x="127.11" y="21.864" fill="#D0D2D3" font-family="Arial" font-size="12.3759">(a);</tspan><tspan x="142.666" y="21.864" fill="#AF57A0" font-family="Arial" font-size="12.3759">return</tspan><tspan x="174.744" y="21.864" fill="#66BC55" font-family="Arial" font-size="12.3759">&quot;function&quot;</tspan><tspan x="226.585" y="21.864" fill="#00A8E2" font-family="Arial" font-size="12.3759">!==</tspan><tspan x="244.184" y="21.864" fill="#D0D2D3" font-family="Arial" font-size="12.3759">d</tspan><tspan x="251.164" y="21.864" fill="#00A8E2" font-family="Arial" font-size="12.3759">&amp;&amp;!</tspan><tspan x="268.984" y="21.864" fill="#F15157" font-family="Arial" font-size="12.3759">c</tspan><tspan x="274.529" y="21.864" fill="#D0D2D3" font-family="Arial" font-size="12.3759">.</tspan><tspan x="277.09" y="21.864" fill="#00A8E2" font-family="Arial" font-size="12.3759">isWindow</tspan><tspan x="328.004" y="21.864" fill="#D0D2D3" font-family="Arial" font-size="12.3759">(a)</tspan><tspan x="340.999" y="21.864" fill="#00A8E2" font-family="Arial" font-size="12.3759">&amp;&amp;</tspan><tspan x="355.974" y="21.864" fill="#D0D2D3" font-family="Arial" font-size="12.3759">(</tspan><tspan x="359.488" y="21.864" fill="#00A8E2" font-family="Arial" font-size="12.3759">!</tspan><tspan x="362.334" y="21.864" fill="#D0D2D3" font-family="Arial" font-size="12.3759">(</tspan><tspan x="365.849" y="21.864" fill="#00A8E2" font-family="Arial" font-size="12.3759">!</tspan><tspan x="368.695" y="21.864" fill="#F15157" font-family="Arial" font-size="12.3759">a</tspan><tspan x="374.661" y="21.864" fill="#D0D2D3" font-family="Arial" font-size="12.3759">.</tspan><tspan x="377.222" y="21.864" fill="#F15157" font-family="Arial" font-size="12.3759">nodeType</tspan><tspan x="429.287" y="21.864" fill="#00A8E2" font-family="Arial" font-size="12.3759">||!</tspan><tspan x="438.049" y="21.864" fill="#D0D2D3" font-family="Arial" font-size="12.3759">b)</tspan><tspan x="448.606" y="21.864" fill="#00A8E2" font-family="Arial" font-size="12.3759">||</tspan><tspan x="454.522" y="21.864" fill="#AF57A0" font-family="Arial" font-size="12.3759">typeof</tspan><tspan x="488.097" y="21.864" fill="#D0D2D3" font-family="Arial" font-size="12.3759"> b</tspan><tspan x="497.763" y="21.864" fill="#00A8E2" font-family="Arial" font-size="12.3759">&amp;&amp;</tspan><tspan x="512.738" y="21.864" fill="#D0D2D3" font-family="Arial" font-size="12.3759">b))}  </tspan><tspan x="535.572" y="21.864" fill="#AF57A0" font-family="Arial" font-size="12.3759">if</tspan><tspan x="542.081" y="21.864" fill="#D0D2D3" font-family="Arial" font-size="12.3759">(</tspan><tspan x="545.595" y="21.864" fill="#00A8E2" font-family="Arial" font-size="12.3759">!</tspan><tspan x="548.442" y="21.864" fill="#D0D2D3" font-family="Arial" font-size="12.3759">a){</tspan><tspan x="561.436" y="21.864" fill="#AF57A0" font-family="Arial" font-size="12.3759">var</tspan><tspan x="577.401" y="21.864" fill="#D0D2D3" font-family="Arial" font-size="12.3759"> c</tspan><tspan x="585.569" y="21.864" fill="#00A8E2" font-family="Arial" font-size="12.3759">=</tspan><tspan x="592.945" y="21.864" fill="#AF57A0" font-family="Arial" font-size="12.3759">function</tspan><tspan x="636.444" y="21.864" fill="#D0D2D3" font-family="Arial" font-size="12.3759">(a,b)  {</tspan><tspan x="667.804" y="21.864" fill="#00A8E2" font-family="Arial" font-size="12.3759">new </tspan><tspan x="692.605" y="21.864" fill="#F7941E" font-family="Arial" font-size="12.3759">c.fn.init</tspan><tspan x="730.509" y="21.864" fill="#D0D2D3" font-family="Arial" font-size="12.3759">(a,b)};</tspan><tspan x="759.183" y="21.864" fill="#AF57A0" font-family="Arial" font-size="12.3759">new </tspan><tspan x="783.984" y="21.864" fill="#F7941E" font-family="Arial" font-size="12.3759">Array</tspan><tspan x="811.446" y="21.864" fill="#D0D2D3" font-family="Arial" font-size="12.3759">(t),y=</tspan><tspan x="838.338" y="21.864" fill="#AF57A0" font-family="Arial" font-size="12.3759">!</tspan><tspan x="841.185" y="21.864" fill="#F7941E" font-family="Arial" font-size="12.3759">1</tspan><tspan x="847.534" y="21.864" fill="#D0D2D3" font-family="Arial" font-size="12.3759">,</tspan><tspan x="850.095" y="21.864" fill="#00A8E2" font-family="Arial" font-size="12.3759">z=</tspan><tspan x="862.768" y="21.864" fill="#AF57A0" font-family="Arial" font-size="12.3759">function</tspan><tspan x="0" y="32.796" fill="#AF57A0" font-family="Arial" font-size="12.3759">return</tspan><tspan x="32.078" y="32.796" fill="#66BC55" font-family="Arial" font-size="12.3759">&quot;function&quot;</tspan><tspan x="83.919" y="32.796" fill="#00A8E2" font-family="Arial" font-size="12.3759">!</tspan><tspan x="86.766" y="32.796" fill="#D0D2D3" font-family="Arial" font-size="12.3759">d</tspan><tspan x="93.746" y="32.796" fill="#00A8E2" font-family="Arial" font-size="12.3759">&amp;&amp;!</tspan><tspan x="111.566" y="32.796" fill="#F15157" font-family="Arial" font-size="12.3759">c</tspan><tspan x="117.111" y="32.796" fill="#D0D2D3" font-family="Arial" font-size="12.3759">.</tspan><tspan x="119.672" y="32.796" fill="#00A8E2" font-family="Arial" font-size="12.3759">isWindow</tspan><tspan x="170.586" y="32.796" fill="#D0D2D3" font-family="Arial" font-size="12.3759">(a)</tspan><tspan x="183.581" y="32.796" fill="#00A8E2" font-family="Arial" font-size="12.3759">&amp;&amp;</tspan><tspan x="198.556" y="32.796" fill="#D0D2D3" font-family="Arial" font-size="12.3759">(</tspan><tspan x="202.07" y="32.796" fill="#00A8E2" font-family="Arial" font-size="12.3759">!</tspan><tspan x="204.917" y="32.796" fill="#D0D2D3" font-family="Arial" font-size="12.3759">(</tspan><tspan x="208.431" y="32.796" fill="#F9AC51" font-family="Arial" font-size="12.3759">1</tspan><tspan x="214.78" y="32.796" fill="#00A8E2" font-family="Arial" font-size="12.3759">!==</tspan><tspan x="232.378" y="32.796" fill="#F15157" font-family="Arial" font-size="12.3759">a</tspan><tspan x="238.343" y="32.796" fill="#D0D2D3" font-family="Arial" font-size="12.3759">.</tspan><tspan x="240.905" y="32.796" fill="#F15157" font-family="Arial" font-size="12.3759">nodeType</tspan><tspan x="292.97" y="32.796" fill="#00A8E2" font-family="Arial" font-size="12.3759">||!</tspan><tspan x="301.732" y="32.796" fill="#D0D2D3" font-family="Arial" font-size="12.3759">b)</tspan><tspan x="312.288" y="32.796" fill="#00A8E2" font-family="Arial" font-size="12.3759">||</tspan><tspan x="318.204" y="32.796" fill="#D0D2D3" font-family="Arial" font-size="12.3759">(</tspan><tspan x="321.719" y="32.796" fill="#66BC55" font-family="Arial" font-size="12.3759">&quot;array&quot;</tspan><tspan x="355.913" y="32.796" fill="#00A8E2" font-family="Arial" font-size="12.3759">||</tspan><tspan x="361.829" y="32.796" fill="#66BC55" font-family="Arial" font-size="12.3759">&quot;number&quot;</tspan><tspan x="411.467" y="32.796" fill="#00A8E2" font-family="Arial" font-size="12.3759">==</tspan><tspan x="426.219" y="32.796" fill="#AF57A0" font-family="Arial" font-size="12.3759">typeof</tspan><tspan x="459.793" y="32.796" fill="#D0D2D3" font-family="Arial" font-size="12.3759"> b</tspan><tspan x="469.459" y="32.796" fill="#00A8E2" font-family="Arial" font-size="12.3759">&amp;&amp;</tspan><tspan x="484.434" y="32.796" fill="#D0D2D3" font-family="Arial" font-size="12.3759">b</tspan><tspan x="491.476" y="32.796" fill="#00A8E2" font-family="Arial" font-size="12.3759">&gt;</tspan><tspan x="498.852" y="32.796" fill="#F7941E" font-family="Arial" font-size="12.3759">0</tspan><tspan x="505.201" y="32.796" fill="#00A8E2" font-family="Arial" font-size="12.3759">&amp;&amp;</tspan><tspan x="520.175" y="32.796" fill="#D0D2D3" font-family="Arial" font-size="12.3759">b</tspan><tspan x="527.217" y="32.796" fill="#00A8E2" font-family="Arial" font-size="12.3759">-</tspan><tspan x="531.016" y="32.796" fill="#D0D2D3" font-family="Arial" font-size="12.3759">1 </tspan><tspan x="539.989" y="32.796" fill="#AF57A0" font-family="Arial" font-size="12.3759">in</tspan><tspan x="549.752" y="32.796" fill="#D0D2D3" font-family="Arial" font-size="12.3759"> a))}</tspan><tspan x="568.885" y="32.796" fill="#AF57A0" font-family="Arial" font-size="12.3759">if</tspan><tspan x="575.394" y="32.796" fill="#D0D2D3" font-family="Arial" font-size="12.3759">(</tspan><tspan x="578.909" y="32.796" fill="#00A8E2" font-family="Arial" font-size="12.3759">!</tspan><tspan x="581.755" y="32.796" fill="#D0D2D3" font-family="Arial" font-size="12.3759">a.</tspan><tspan x="590.282" y="32.796" fill="#F15157" font-family="Arial" font-size="12.3759">jQuery</tspan><tspan x="624.711" y="32.796" fill="#D0D2D3" font-family="Arial" font-size="12.3759">){</tspan><tspan x="631.741" y="32.796" fill="#AF57A0" font-family="Arial" font-size="12.3759">var</tspan><tspan x="647.706" y="32.796" fill="#D0D2D3" font-family="Arial" font-size="12.3759"> c</tspan><tspan x="655.874" y="32.796" fill="#00A8E2" font-family="Arial" font-size="12.3759">=</tspan><tspan x="663.25" y="32.796" fill="#AF57A0" font-family="Arial" font-size="12.3759">function</tspan><tspan x="706.749" y="32.796" fill="#D0D2D3" font-family="Arial" font-size="12.3759">(a,b){</tspan><tspan x="732.861" y="32.796" fill="#AF57A0" font-family="Arial" font-size="12.3759">return </tspan><tspan x="767.563" y="32.796" fill="#00A8E2" font-family="Arial" font-size="12.3759">new </tspan><tspan x="792.364" y="32.796" fill="#F7941E" font-family="Arial" font-size="12.3759">c.fn.init</tspan><tspan x="830.268" y="32.796" fill="#D0D2D3" font-family="Arial" font-size="12.3759">(a,b)}      ;</tspan><tspan x="874.686" y="32.796" fill="#AF57A0" font-family="Arial" font-size="12.3759">try</tspan><tspan x="888.659" y="32.796" fill="#D0D2D3" font-family="Arial" font-size="12.3759">{</tspan><tspan x="892.173" y="32.796" fill="#AF57A0" font-family="Arial" font-size="12.3759">if</tspan><tspan x="898.682" y="32.796" fill="#D0D2D3" font-family="Arial" font-size="12.3759">(a</tspan><tspan x="0" y="43.729" fill="#00A8E2" font-family="Arial" font-size="12.3759">isWindow</tspan><tspan x="50.914" y="43.729" fill="#D0D2D3" font-family="Arial" font-size="12.3759">(a)</tspan><tspan x="63.909" y="43.729" fill="#00A8E2" font-family="Arial" font-size="12.3759">&amp;&amp;</tspan><tspan x="78.883" y="43.729" fill="#D0D2D3" font-family="Arial" font-size="12.3759">(</tspan><tspan x="82.398" y="43.729" fill="#00A8E2" font-family="Arial" font-size="12.3759">!</tspan><tspan x="85.244" y="43.729" fill="#D0D2D3" font-family="Arial" font-size="12.3759">(</tspan><tspan x="88.759" y="43.729" fill="#F9AC51" font-family="Arial" font-size="12.3759">1</tspan><tspan x="95.107" y="43.729" fill="#00A8E2" font-family="Arial" font-size="12.3759">!==</tspan><tspan x="112.706" y="43.729" fill="#F15157" font-family="Arial" font-size="12.3759">a</tspan><tspan x="118.671" y="43.729" fill="#D0D2D3" font-family="Arial" font-size="12.3759">.</tspan><tspan x="121.232" y="43.729" fill="#F15157" font-family="Arial" font-size="12.3759">nodeType</tspan><tspan x="173.297" y="43.729" fill="#00A8E2" font-family="Arial" font-size="12.3759">||</tspan><tspan x="179.213" y="43.729" fill="#D0D2D3" font-family="Arial" font-size="12.3759">(</tspan><tspan x="182.728" y="43.729" fill="#66BC55" font-family="Arial" font-size="12.3759">&quot;array&quot;</tspan><tspan x="216.922" y="43.729" fill="#00A8E2" font-family="Arial" font-size="12.3759">===</tspan><tspan x="239.05" y="43.729" fill="#D0D2D3" font-family="Arial" font-size="12.3759">d</tspan><tspan x="246.03" y="43.729" fill="#00A8E2" font-family="Arial" font-size="12.3759">||</tspan><tspan x="251.946" y="43.729" fill="#F7941E" font-family="Arial" font-size="12.3759">0</tspan><tspan x="258.295" y="43.729" fill="#00A8E2" font-family="Arial" font-size="12.3759">===</tspan><tspan x="280.423" y="43.729" fill="#D0D2D3" font-family="Arial" font-size="12.3759">b</tspan><tspan x="287.464" y="43.729" fill="#00A8E2" font-family="Arial" font-size="12.3759">||</tspan><tspan x="293.38" y="43.729" fill="#AF57A0" font-family="Arial" font-size="12.3759">typeof</tspan><tspan x="326.956" y="43.729" fill="#D0D2D3" font-family="Arial" font-size="12.3759"> b</tspan><tspan x="336.621" y="43.729" fill="#00A8E2" font-family="Arial" font-size="12.3759">&amp;&amp;</tspan><tspan x="351.595" y="43.729" fill="#D0D2D3" font-family="Arial" font-size="12.3759">b</tspan><tspan x="358.637" y="43.729" fill="#00A8E2" font-family="Arial" font-size="12.3759">&gt;</tspan><tspan x="366.013" y="43.729" fill="#F7941E" font-family="Arial" font-size="12.3759">0</tspan><tspan x="372.361" y="43.729" fill="#00A8E2" font-family="Arial" font-size="12.3759">&amp;&amp;</tspan><tspan x="387.336" y="43.729" fill="#D0D2D3" font-family="Arial" font-size="12.3759">b</tspan><tspan x="394.377" y="43.729" fill="#00A8E2" font-family="Arial" font-size="12.3759">-</tspan><tspan x="398.177" y="43.729" fill="#D0D2D3" font-family="Arial" font-size="12.3759">1 </tspan><tspan x="407.149" y="43.729" fill="#AF57A0" font-family="Arial" font-size="12.3759">in</tspan><tspan x="416.914" y="43.729" fill="#D0D2D3" font-family="Arial" font-size="12.3759"> a))}</tspan><tspan x="436.046" y="43.729" fill="#AF57A0" font-family="Arial" font-size="12.3759">if</tspan><tspan x="442.556" y="43.729" fill="#D0D2D3" font-family="Arial" font-size="12.3759">(</tspan><tspan x="446.071" y="43.729" fill="#00A8E2" font-family="Arial" font-size="12.3759">!</tspan><tspan x="448.917" y="43.729" fill="#D0D2D3" font-family="Arial" font-size="12.3759">a.</tspan><tspan x="457.444" y="43.729" fill="#F15157" font-family="Arial" font-size="12.3759">jQue </tspan><tspan x="484.622" y="43.729" fill="#AF57A0" font-family="Arial" font-size="12.3759">var</tspan><tspan x="500.586" y="43.729" fill="#D0D2D3" font-family="Arial" font-size="12.3759"> c</tspan><tspan x="508.754" y="43.729" fill="#00A8E2" font-family="Arial" font-size="12.3759">=</tspan><tspan x="516.13" y="43.729" fill="#AF57A0" font-family="Arial" font-size="12.3759">function</tspan><tspan x="559.629" y="43.729" fill="#D0D2D3" font-family="Arial" font-size="12.3759">(a,b){</tspan><tspan x="585.742" y="43.729" fill="#AF57A0" font-family="Arial" font-size="12.3759">return </tspan><tspan x="620.444" y="43.729" fill="#00A8E2" font-family="Arial" font-size="12.3759">new </tspan><tspan x="645.245" y="43.729" fill="#F7941E" font-family="Arial" font-size="12.3759">c.fn.init</tspan><tspan x="683.149" y="43.729" fill="#D0D2D3" font-family="Arial" font-size="12.3759">(a,b)};</tspan><tspan x="711.823" y="43.729" fill="#00A8E2" font-family="Arial" font-size="12.3759">call</tspan><tspan x="729.173" y="43.729" fill="#D0D2D3" font-family="Arial" font-size="12.3759">(</tspan><tspan x="732.688" y="43.729" fill="#F15157" font-family="Arial" font-size="12.3759">a.constructor.prototype</tspan><tspan x="855.268" y="43.729" fill="#D0D2D3" font-family="Arial" font-size="12.3759">,</tspan><tspan x="857.83" y="43.729" fill="#66BC55" font-family="Arial" font-size="12.3759">&quot;isPrototypeOf</tspan><tspan x="0" y="54.66" fill="#AF57A0" font-family="Arial" font-size="12.3759">if</tspan><tspan x="6.51" y="54.66" fill="#D0D2D3" font-family="Arial" font-size="12.3759">(</tspan><tspan x="10.024" y="54.66" fill="#00A8E2" font-family="Arial" font-size="12.3759">!</tspan><tspan x="12.871" y="54.66" fill="#D0D2D3" font-family="Arial" font-size="12.3759">a</tspan><tspan x="18.836" y="54.66" fill="#00A8E2" font-family="Arial" font-size="12.3759">||</tspan><tspan x="24.752" y="54.66" fill="#66BC55" font-family="Arial" font-size="12.3759">&quot;object&quot;</tspan><tspan x="65.777" y="54.66" fill="#00A8E2" font-family="Arial" font-size="12.3759">!</tspan><tspan x="68.623" y="54.66" fill="#D0D2D3" font-family="Arial" font-size="12.3759">(a)</tspan><tspan x="81.618" y="54.66" fill="#00A8E2" font-family="Arial" font-size="12.3759">||</tspan><tspan x="87.534" y="54.66" fill="#F15157" font-family="Arial" font-size="12.3759">c</tspan><tspan x="93.078" y="54.66" fill="#D0D2D3" font-family="Arial" font-size="12.3759">.</tspan><tspan x="95.64" y="54.66" fill="#66BC55" font-family="Arial" font-size="12.3759">&quot;number&quot;</tspan><tspan x="145.278" y="54.66" fill="#D0D2D3" font-family="Arial" font-size="12.3759">(a))</tspan><tspan x="161.787" y="54.66" fill="#AF57A0" font-family="Arial" font-size="12.3759">return</tspan><tspan x="193.865" y="54.66" fill="#00A8E2" font-family="Arial" font-size="12.3759">!</tspan><tspan x="196.711" y="54.66" fill="#F15157" font-family="Arial" font-size="12.3759">1</tspan><tspan x="203.06" y="54.66" fill="#D0D2D3" font-family="Arial" font-size="12.3759">;</tspan><tspan x="205.621" y="54.66" fill="#AF57A0" font-family="Arial" font-size="12.3759">try</tspan><tspan x="219.593" y="54.66" fill="#D0D2D3" font-family="Arial" font-size="12.3759">{</tspan><tspan x="223.108" y="54.66" fill="#AF57A0" font-family="Arial" font-size="12.3759">if</tspan><tspan x="229.618" y="54.66" fill="#D0D2D3" font-family="Arial" font-size="12.3759">(</tspan><tspan x="233.132" y="54.66" fill="#F15157" font-family="Arial" font-size="12.3759">a.constructor</tspan><tspan x="301.211" y="54.66" fill="#00A8E2" font-family="Arial" font-size="12.3759">&amp;&amp;!</tspan><tspan x="319.032" y="54.66" fill="#D0D2D3" font-family="Arial" font-size="12.3759">f.</tspan><tspan x="325.208" y="54.66" fill="#00A8E2" font-family="Arial" font-size="12.3759">call</tspan><tspan x="342.558" y="54.66" fill="#D0D2D3" font-family="Arial" font-size="12.3759">(a,</tspan><tspan x="354.6" y="54.66" fill="#66BC55" font-family="Arial" font-size="12.3759">&quot;constructor&quot;</tspan><tspan x="422.493" y="54.66" fill="#D0D2D3" font-family="Arial" font-size="12.3759">).</tspan><tspan x="428.569" y="54.66" fill="#00A8E2" font-family="Arial" font-size="12.3759">call</tspan><tspan x="445.919" y="54.66" fill="#D0D2D3" font-family="Arial" font-size="12.3759">(</tspan><tspan x="449.434" y="54.66" fill="#F15157" font-family="Arial" font-size="12.3759">a.constructor.prototype</tspan><tspan x="572.014" y="54.66" fill="#D0D2D3" font-family="Arial" font-size="12.3759">,</tspan><tspan x="574.576" y="54.66" fill="#66BC55" font-family="Arial" font-size="12.3759">&quot;isPrototypeOf&quot;</tspan><tspan x="654.337" y="54.66" fill="#D0D2D3" font-family="Arial" font-size="12.3759">))</tspan><tspan x="661.367" y="54.66" fill="#AF57A0" font-family="Arial" font-size="12.3759">return</tspan><tspan x="693.445" y="54.66" fill="#00A8E2" font-family="Arial" font-size="12.3759">!</tspan><tspan x="696.292" y="54.66" fill="#F7941E" font-family="Arial" font-size="12.3759">1</tspan><tspan x="702.64" y="54.66" fill="#D0D2D3" font-family="Arial" font-size="12.3759">}</tspan><tspan x="706.155" y="54.66" fill="#AF57A0" font-family="Arial" font-size="12.3759">catch</tspan><tspan x="734.172" y="54.66" fill="#D0D2D3" font-family="Arial" font-size="12.3759">(d){</tspan><tspan x="751.696" y="54.66" fill="#AF57A0" font-family="Arial" font-size="12.3759">return</tspan><tspan x="783.774" y="54.66" fill="#F7941E" font-family="Arial" font-size="12.3759">undefined</tspan><tspan x="837.162" y="54.66" fill="#D0D2D3" font-family="Arial" font-size="12.3759">};</tspan><tspan x="843.238" y="54.66" fill="#AF57A0" font-family="Arial" font-size="12.3759">let</tspan><tspan x="856.456" y="54.66" fill="#D0D2D3" font-family="Arial" font-size="12.3759">a</tspan><tspan x="862.42" y="54.66" fill="#00A8E2" font-family="Arial" font-size="12.3759">=</tspan><tspan x="869.796" y="54.66" fill="#AF57A0" font-family="Arial" font-size="12.3759">function</tspan><tspan x="0" y="65.593" fill="#66BC55" font-family="Arial" font-size="12.3759">array</tspan><tspan x="25.854" y="65.593" fill="#00A8E2" font-family="Arial" font-size="12.3759">===</tspan><tspan x="47.981" y="65.593" fill="#D0D2D3" font-family="Arial" font-size="12.3759">d)</tspan><tspan x="58.476" y="65.593" fill="#AF57A0" font-family="Arial" font-size="12.3759">function </tspan><tspan x="104.601" y="65.593" fill="#00A8E2" font-family="Arial" font-size="12.3759">b</tspan><tspan x="111.642" y="65.593" fill="#D0D2D3" font-family="Arial" font-size="12.3759">(a){</tspan><tspan x="128.151" y="65.593" fill="#AF57A0" font-family="Arial" font-size="12.3759">var</tspan><tspan x="144.116" y="65.593" fill="#D0D2D3" font-family="Arial" font-size="12.3759"> b</tspan><tspan x="153.781" y="65.593" fill="#00A8E2" font-family="Arial" font-size="12.3759">=</tspan><tspan x="161.157" y="65.593" fill="#F15157" font-family="Arial" font-size="12.3759">a</tspan><tspan x="167.123" y="65.593" fill="#D0D2D3" font-family="Arial" font-size="12.3759">.</tspan><tspan x="169.684" y="65.593" fill="#F15157" font-family="Arial" font-size="12.3759">length</tspan><tspan x="203.556" y="65.593" fill="#D0D2D3" font-family="Arial" font-size="12.3759">,d</tspan><tspan x="213.098" y="65.593" fill="#00A8E2" font-family="Arial" font-size="12.3759">=</tspan><tspan x="220.474" y="65.593" fill="#F15157" font-family="Arial" font-size="12.3759">c</tspan><tspan x="226.018" y="65.593" fill="#D0D2D3" font-family="Arial" font-size="12.3759">.</tspan><tspan x="228.58" y="65.593" fill="#F15157" font-family="Arial" font-size="12.3759">type</tspan><tspan x="251.747" y="65.593" fill="#D0D2D3" font-family="Arial" font-size="12.3759">(a);</tspan><tspan x="267.303" y="65.593" fill="#AF57A0" font-family="Arial" font-size="12.3759">return</tspan><tspan x="299.38" y="65.593" fill="#66BC55" font-family="Arial" font-size="12.3759">&quot;function&quot;</tspan><tspan x="351.222" y="65.593" fill="#00A8E2" font-family="Arial" font-size="12.3759">!==</tspan><tspan x="368.82" y="65.593" fill="#D0D2D3" font-family="Arial" font-size="12.3759">d</tspan><tspan x="375.8" y="65.593" fill="#00A8E2" font-family="Arial" font-size="12.3759">&amp;&amp;!</tspan><tspan x="393.621" y="65.593" fill="#F15157" font-family="Arial" font-size="12.3759">c</tspan><tspan x="399.166" y="65.593" fill="#D0D2D3" font-family="Arial" font-size="12.3759">.</tspan><tspan x="401.727" y="65.593" fill="#00A8E2" font-family="Arial" font-size="12.3759">isWindow</tspan><tspan x="452.641" y="65.593" fill="#D0D2D3" font-family="Arial" font-size="12.3759">(a)</tspan><tspan x="465.635" y="65.593" fill="#00A8E2" font-family="Arial" font-size="12.3759">&amp;&amp;</tspan><tspan x="480.61" y="65.593" fill="#D0D2D3" font-family="Arial" font-size="12.3759">(</tspan><tspan x="484.125" y="65.593" fill="#00A8E2" font-family="Arial" font-size="12.3759">!</tspan><tspan x="486.971" y="65.593" fill="#AF57A0" font-family="Arial" font-size="12.3759">React</tspan><tspan x="515.435" y="65.593" fill="#D0D2D3" font-family="Arial" font-size="12.3759">.Component</tspan><tspan x="580.159" y="65.593" fill="#F15157" font-family="Arial" font-size="12.3759">Type</tspan><tspan x="605.38" y="65.593" fill="#00A8E2" font-family="Arial" font-size="12.3759">||!</tspan><tspan x="614.143" y="65.593" fill="#D0D2D3" font-family="Arial" font-size="12.3759">b)</tspan><tspan x="624.7" y="65.593" fill="#00A8E2" font-family="Arial" font-size="12.3759">||</tspan><tspan x="630.616" y="65.593" fill="#D0D2D3" font-family="Arial" font-size="12.3759">(</tspan><tspan x="634.13" y="65.593" fill="#66BC55" font-family="Arial" font-size="12.3759">&quot;array&quot;</tspan><tspan x="668.325" y="65.593" fill="#00A8E2" font-family="Arial" font-size="12.3759">===</tspan><tspan x="690.453" y="65.593" fill="#D0D2D3" font-family="Arial" font-size="12.3759">d</tspan><tspan x="697.432" y="65.593" fill="#00A8E2" font-family="Arial" font-size="12.3759">||isWindow||</tspan><tspan x="760.175" y="65.593" fill="#66BC55" font-family="Arial" font-size="12.3759">&quot;number&quot;</tspan><tspan x="809.815" y="65.593" fill="#00A8E2" font-family="Arial" font-size="12.3759">==</tspan><tspan x="824.567" y="65.593" fill="#AF57A0" font-family="Arial" font-size="12.3759"> </tspan><tspan x="827.191" y="65.593" fill="#D0D2D3" font-family="Arial" font-size="12.3759">a))}</tspan><tspan x="843.7" y="65.593" fill="#F15157" font-family="Arial" font-size="12.3759">prototype</tspan><tspan x="0" y="76.524" fill="#D0D2D3" font-family="Arial" font-size="12.3759">(a,b){</tspan><tspan x="26.112" y="76.524" fill="#AF57A0" font-family="Arial" font-size="12.3759">return </tspan><tspan x="60.813" y="76.524" fill="#00A8E2" font-family="Arial" font-size="12.3759">new </tspan><tspan x="85.614" y="76.524" fill="#F7941E" font-family="Arial" font-size="12.3759">c.fn.init</tspan><tspan x="123.521" y="76.524" fill="#D0D2D3" font-family="Arial" font-size="12.3759">(a,b)};</tspan><tspan x="152.195" y="76.524" fill="#AF57A0" font-family="Arial" font-size="12.3759">if</tspan><tspan x="158.705" y="76.524" fill="#D0D2D3" font-family="Arial" font-size="12.3759">(</tspan><tspan x="162.219" y="76.524" fill="#00A8E2" font-family="Arial" font-size="12.3759">!</tspan><tspan x="165.065" y="76.524" fill="#D0D2D3" font-family="Arial" font-size="12.3759">a</tspan><tspan x="171.031" y="76.524" fill="#00A8E2" font-family="Arial" font-size="12.3759">||</tspan><tspan x="176.947" y="76.524" fill="#66BC55" font-family="Arial" font-size="12.3759">&quot;object&quot;</tspan><tspan x="217.972" y="76.524" fill="#00A8E2" font-family="Arial" font-size="12.3759">!==</tspan><tspan x="235.57" y="76.524" fill="#F15157" font-family="Arial" font-size="12.3759">c.type</tspan><tspan x="266.843" y="76.524" fill="#D0D2D3" font-family="Arial" font-size="12.3759">(a)</tspan><tspan x="279.837" y="76.524" fill="#00A8E2" font-family="Arial" font-size="12.3759">||</tspan><tspan x="285.753" y="76.524" fill="#F15157" font-family="Arial" font-size="12.3759">a.nodeType</tspan><tspan x="346.345" y="76.524" fill="#00A8E2" font-family="Arial" font-size="12.3759">||</tspan><tspan x="352.261" y="76.524" fill="#AF57A0" font-family="Arial" font-size="12.3759">return</tspan><tspan x="384.339" y="76.524" fill="#00A8E2" font-family="Arial" font-size="12.3759">!</tspan><tspan x="387.185" y="76.524" fill="#F15157" font-family="Arial" font-size="12.3759">1</tspan><tspan x="393.534" y="76.524" fill="#D0D2D3" font-family="Arial" font-size="12.3759">;</tspan><tspan x="396.095" y="76.524" fill="#AF57A0" font-family="Arial" font-size="12.3759">try</tspan><tspan x="410.067" y="76.524" fill="#D0D2D3" font-family="Arial" font-size="12.3759">{</tspan><tspan x="413.582" y="76.524" fill="#AF57A0" font-family="Arial" font-size="12.3759">if</tspan><tspan x="420.092" y="76.524" fill="#D0D2D3" font-family="Arial" font-size="12.3759">(</tspan><tspan x="423.606" y="76.524" fill="#F15157" font-family="Arial" font-size="12.3759">a.constructor</tspan><tspan x="491.685" y="76.524" fill="#00A8E2" font-family="Arial" font-size="12.3759">&amp;&amp;!</tspan><tspan x="509.506" y="76.524" fill="#D0D2D3" font-family="Arial" font-size="12.3759">f.</tspan><tspan x="515.681" y="76.524" fill="#00A8E2" font-family="Arial" font-size="12.3759">call</tspan><tspan x="533.032" y="76.524" fill="#D0D2D3" font-family="Arial" font-size="12.3759">(a)</tspan><tspan x="546.026" y="76.524" fill="#00A8E2" font-family="Arial" font-size="12.3759">&amp;&amp;!</tspan><tspan x="563.847" y="76.524" fill="#D0D2D3" font-family="Arial" font-size="12.3759">f.</tspan><tspan x="570.022" y="76.524" fill="#00A8E2" font-family="Arial" font-size="12.3759">call</tspan><tspan x="587.373" y="76.524" fill="#D0D2D3" font-family="Arial" font-size="12.3759">(</tspan><tspan x="590.887" y="76.524" fill="#F15157" font-family="Arial" font-size="12.3759">a.constructor.prototype</tspan><tspan x="713.467" y="76.524" fill="#D0D2D3" font-family="Arial" font-size="12.3759">,</tspan><tspan x="716.029" y="76.524" fill="#66BC55" font-family="Arial" font-size="12.3759">&quot;isPrototypeOf&quot;</tspan><tspan x="795.791" y="76.524" fill="#D0D2D3" font-family="Arial" font-size="12.3759">))</tspan><tspan x="802.82" y="76.524" fill="#AF57A0" font-family="Arial" font-size="12.3759">return</tspan><tspan x="834.898" y="76.524" fill="#00A8E2" font-family="Arial" font-size="12.3759">! </tspan><tspan x="840.369" y="76.524" fill="#D0D2D3" font-family="Arial" font-size="12.3759">b</tspan><tspan x="847.411" y="76.524" fill="#00A8E2" font-family="Arial" font-size="12.3759">&amp;&amp;</tspan><tspan x="862.385" y="76.524" fill="#D0D2D3" font-family="Arial" font-size="12.3759">b</tspan><tspan x="869.427" y="76.524" fill="#00A8E2" font-family="Arial" font-size="12.3759">&gt;</tspan><tspan x="876.803" y="76.524" fill="#F7941E" font-family="Arial" font-size="12.3759">0</tspan><tspan x="883.152" y="76.524" fill="#00A8E2" font-family="Arial" font-size="12.3759">&amp;&amp;</tspan><tspan x="898.126" y="76.524" fill="#D0D2D3" font-family="Arial" font-size="12.3759">b</tspan><tspan x="905.168" y="76.524" fill="#00A8E2" font-family="Arial" font-size="12.3759">-</tspan><tspan x="908.967" y="76.524" fill="#D0D2D3" font-family="Arial" font-size="12.3759">1</tspan><tspan x="0" y="87.457" fill="#D0D2D3" font-family="Arial" font-size="12.3759">(</tspan><tspan x="3.515" y="87.457" fill="#66BC55" font-family="Arial" font-size="12.3759">&quot;array&quot;</tspan><tspan x="37.709" y="87.457" fill="#00A8E2" font-family="Arial" font-size="12.3759">===</tspan><tspan x="59.837" y="87.457" fill="#D0D2D3" font-family="Arial" font-size="12.3759">d</tspan><tspan x="66.817" y="87.457" fill="#00A8E2" font-family="Arial" font-size="12.3759">||</tspan><tspan x="72.733" y="87.457" fill="#F7941E" font-family="Arial" font-size="12.3759">0</tspan><tspan x="79.082" y="87.457" fill="#00A8E2" font-family="Arial" font-size="12.3759">===</tspan><tspan x="101.209" y="87.457" fill="#D0D2D3" font-family="Arial" font-size="12.3759">b</tspan><tspan x="108.251" y="87.457" fill="#00A8E2" font-family="Arial" font-size="12.3759">||</tspan><tspan x="114.167" y="87.457" fill="#66BC55" font-family="Arial" font-size="12.3759">&quot;number&quot;</tspan><tspan x="163.805" y="87.457" fill="#00A8E2" font-family="Arial" font-size="12.3759">==</tspan><tspan x="178.557" y="87.457" fill="#AF57A0" font-family="Arial" font-size="12.3759">typeof</tspan><tspan x="212.132" y="87.457" fill="#D0D2D3" font-family="Arial" font-size="12.3759"> b</tspan><tspan x="221.797" y="87.457" fill="#00A8E2" font-family="Arial" font-size="12.3759">&amp;&amp;</tspan><tspan x="236.772" y="87.457" fill="#D0D2D3" font-family="Arial" font-size="12.3759">b</tspan><tspan x="243.813" y="87.457" fill="#00A8E2" font-family="Arial" font-size="12.3759">&gt;</tspan><tspan x="251.189" y="87.457" fill="#F7941E" font-family="Arial" font-size="12.3759">0</tspan><tspan x="257.538" y="87.457" fill="#00A8E2" font-family="Arial" font-size="12.3759">&amp;&amp;</tspan><tspan x="272.513" y="87.457" fill="#D0D2D3" font-family="Arial" font-size="12.3759">b</tspan><tspan x="279.554" y="87.457" fill="#00A8E2" font-family="Arial" font-size="12.3759">-</tspan><tspan x="283.354" y="87.457" fill="#D0D2D3" font-family="Arial" font-size="12.3759">1 </tspan><tspan x="292.326" y="87.457" fill="#AF57A0" font-family="Arial" font-size="12.3759">in</tspan><tspan x="302.09" y="87.457" fill="#D0D2D3" font-family="Arial" font-size="12.3759"> a))}</tspan><tspan x="321.223" y="87.457" fill="#AF57A0" font-family="Arial" font-size="12.3759">if</tspan><tspan x="327.733" y="87.457" fill="#D0D2D3" font-family="Arial" font-size="12.3759">(</tspan><tspan x="331.248" y="87.457" fill="#00A8E2" font-family="Arial" font-size="12.3759">!</tspan><tspan x="334.094" y="87.457" fill="#D0D2D3" font-family="Arial" font-size="12.3759">a.</tspan><tspan x="342.621" y="87.457" fill="#F15157" font-family="Arial" font-size="12.3759">jQuery</tspan><tspan x="377.05" y="87.457" fill="#D0D2D3" font-family="Arial" font-size="12.3759">){</tspan><tspan x="384.079" y="87.457" fill="#AF57A0" font-family="Arial" font-size="12.3759">var</tspan><tspan x="400.044" y="87.457" fill="#D0D2D3" font-family="Arial" font-size="12.3759"> c</tspan><tspan x="408.212" y="87.457" fill="#00A8E2" font-family="Arial" font-size="12.3759">=</tspan><tspan x="415.588" y="87.457" fill="#AF57A0" font-family="Arial" font-size="12.3759">function</tspan><tspan x="459.087" y="87.457" fill="#D0D2D3" font-family="Arial" font-size="12.3759">(a,b){</tspan><tspan x="485.2" y="87.457" fill="#00A8E2" font-family="Arial" font-size="12.3759">new </tspan><tspan x="510" y="87.457" fill="#F7941E" font-family="Arial" font-size="12.3759">c.fn.init</tspan><tspan x="547.905" y="87.457" fill="#D0D2D3" font-family="Arial" font-size="12.3759">(a,b)};</tspan><tspan x="576.579" y="87.457" fill="#AF57A0" font-family="Arial" font-size="12.3759">return</tspan><tspan x="608.657" y="87.457" fill="#66BC55" font-family="Arial" font-size="12.3759">&quot;function&quot;</tspan><tspan x="660.498" y="87.457" fill="#00A8E2" font-family="Arial" font-size="12.3759">!==</tspan><tspan x="678.096" y="87.457" fill="#D0D2D3" font-family="Arial" font-size="12.3759">d</tspan><tspan x="685.076" y="87.457" fill="#00A8E2" font-family="Arial" font-size="12.3759">&amp;&amp;!</tspan><tspan x="702.897" y="87.457" fill="#F15157" font-family="Arial" font-size="12.3759">c</tspan><tspan x="708.441" y="87.457" fill="#D0D2D3" font-family="Arial" font-size="12.3759">.</tspan><tspan x="711.002" y="87.457" fill="#00A8E2" font-family="Arial" font-size="12.3759">isWindow</tspan><tspan x="761.914" y="87.457" fill="#D0D2D3" font-family="Arial" font-size="12.3759">(a)</tspan><tspan x="774.908" y="87.457" fill="#00A8E2" font-family="Arial" font-size="12.3759">&amp;&amp;</tspan><tspan x="789.882" y="87.457" fill="#D0D2D3" font-family="Arial" font-size="12.3759">(</tspan><tspan x="793.397" y="87.457" fill="#00A8E2" font-family="Arial" font-size="12.3759">!</tspan><tspan x="796.244" y="87.457" fill="#D0D2D3" font-family="Arial" font-size="12.3759">(</tspan><tspan x="799.758" y="87.457" fill="#F9AC51" font-family="Arial" font-size="12.3759">1</tspan><tspan x="806.107" y="87.457" fill="#00A8E2" font-family="Arial" font-size="12.3759">!==</tspan><tspan x="823.706" y="87.457" fill="#F15157" font-family="Arial" font-size="12.3759">a</tspan><tspan x="829.67" y="87.457" fill="#D0D2D3" font-family="Arial" font-size="12.3759">.</tspan><tspan x="832.232" y="87.457" fill="#F15157" font-family="Arial" font-size="12.3759">nodeType</tspan><tspan x="884.295" y="87.457" fill="#00A8E2" font-family="Arial" font-size="12.3759">||!</tspan><tspan x="893.058" y="87.457" fill="#D0D2D3" font-family="Arial" font-size="12.3759">b)</tspan><tspan x="903.615" y="87.457" fill="#00A8E2" font-family="Arial" font-size="12.3759">||</tspan><tspan x="909.531" y="87.457" fill="#D0D2D3" font-family="Arial" font-size="12.3759">(</tspan><tspan x="913.045" y="87.457" fill="#66BC55" font-family="Arial" font-size="12.3759">v</tspan></text>
	</g>
	<g>
		<path fill="#272727" d="M237.804,65.537c1.257-1.548,1.882-3.198,1.882-4.956c0-4.77-2.927-7.154-8.787-7.154h-11.736v14.435
			h12.177C234.394,67.862,236.549,67.083,237.804,65.537z"/>
		<path fill="#272727" d="M383.012,53.177c-8.617,0-12.926,8.489-12.926,25.478c0,15.938,4.141,23.91,12.424,23.91
			c4.434,0,7.627-1.938,9.568-5.806c1.95-3.871,2.921-10.953,2.921-21.243C395,60.623,391.003,53.177,383.012,53.177z"/>
		<path fill="#272727" d="M641.928,53.237h-12.112v16.38h11.235c3.304,0,5.958-0.688,7.968-2.07
			c2.006-1.386,3.019-3.409,3.019-6.087C652.037,55.977,648.661,53.237,641.928,53.237z"/>
		<polygon fill="#272727" points="136.903,85.112 150.762,85.112 143.833,60.271 		"/>
		<path fill="#272727" d="M231.086,86.055h-11.923v15.567h12.802c3.183,0,5.515-0.787,7.002-2.354
			c1.484-1.571,2.225-3.335,2.225-5.301c0-1.967-0.721-3.779-2.165-5.432C237.584,86.885,234.934,86.055,231.086,86.055z"/>
		<polygon fill="#272727" points="716.103,85.112 729.962,85.112 723.032,60.271 		"/>
		<path fill="#272727" d="M898.834,53.177c-8.613,0-12.925,8.489-12.925,25.478c0,15.938,4.142,23.91,12.42,23.91
			c4.44,0,7.628-1.938,9.572-5.806c1.941-3.871,2.918-10.953,2.918-21.243C910.819,60.623,906.826,53.177,898.834,53.177z"/>
		<path fill="#272727" d="M0.486,0v158.144h966.499V0H0.486z M100.188,82.042c-5.692,5.021-13.284,7.53-22.782,7.53H62.537v31.121
			H35.868V35.037H72.45c9.122,0,16.056,1.051,20.801,3.138c4.75,2.094,8.515,5.293,11.299,9.604c2.779,4.307,4.169,9.137,4.169,14.5
			C108.719,70.433,105.877,77.022,100.188,82.042z M160.219,120.693l-4.834-16.877h-22.951l-5.142,16.877h-21.348l26.446-85.656
			h27.799l26.863,85.656H160.219z M260.804,113.199c-3.912,5-12.267,7.494-25.072,7.494h-40.79V35.037h43.491
			c9.036,0,15.625,2.283,19.765,6.84c4.143,4.565,6.214,9.769,6.214,15.631c0,4.267-1.201,8.126-3.607,11.575
			c-2.408,3.452-5.993,5.824-10.761,7.126c11.084,2.676,16.628,9.33,16.628,19.949C266.671,102.516,264.715,108.195,260.804,113.199
			z M337.579,120.693h-60.052V35.037h26.293v64.639h33.759V120.693z M411.939,109.715c-7.57,8.198-17.339,12.299-29.302,12.299
			c-12.05,0-21.87-3.992-29.462-11.98c-7.594-7.993-11.393-18.686-11.393-32.067c0-12.804,3.631-23.378,10.889-31.722
			c7.257-8.347,17.329-12.521,30.215-12.521c11.923,0,21.64,3.936,29.149,11.8s11.264,18.361,11.264,31.499
			C423.299,90.619,419.512,101.517,411.939,109.715z M505.938,89.007c0,8.284-0.74,14.593-2.22,18.919
			c-1.486,4.327-4.387,7.763-8.697,10.294c-4.307,2.533-10.141,3.794-17.505,3.794c-6.486,0-12.339-0.688-17.573-2.066V99.486
			c3.682,1.048,7.115,1.571,10.294,1.571c3.766,0,6.442-0.875,8.029-2.603c1.595-1.736,2.388-4.887,2.388-9.448v-53.97h25.284
			V89.007z M589.469,91.768c0,10.748-3.191,18.479-9.576,23.188c-6.374,4.705-14.686,7.058-24.941,7.058
			c-10.793,0-19.459-2.251-26.009-6.775c-6.551-4.52-9.818-11.881-9.818-22.094V35.037h26.729v55.038
			c0,4.102,0.863,7.091,2.595,8.972c1.733,1.882,4.493,2.828,8.291,2.828c3.171,0,5.765-0.681,7.792-2.039
			c2.029-1.361,3.231-2.903,3.625-4.615c0.398-1.717,0.604-5.065,0.604-10.041V35.037h20.708V91.768z M650.618,120.693
			l-12.513-32.749h-8.29v32.749h-26.292V35.037h44.742c9.865,0,17.536,2.316,22.996,6.94c5.462,4.618,8.188,10.722,8.188,18.287
			c0,4.944-1.002,9.302-3.012,13.089c-2.008,3.786-6.064,7.118-12.171,10.003l15.502,37.338H650.618z M739.421,120.693
			l-4.842-16.877h-22.946l-5.138,16.877h-21.348l26.44-85.656h27.797l26.866,85.656H739.421z M838.808,108.684
			c-7.671,8.01-17.642,12.01-29.897,12.01h-34.767V35.037h33.136c14.391,0,25.164,4.27,32.31,12.807
			c7.162,8.532,10.74,18.406,10.74,29.614C850.329,90.265,846.489,100.67,838.808,108.684z M927.762,109.715
			c-7.572,8.198-17.338,12.299-29.303,12.299c-12.053,0-21.871-3.992-29.465-11.98c-7.591-7.993-11.391-18.686-11.391-32.067
			c0-12.804,3.635-23.378,10.891-31.722c7.26-8.347,17.326-12.521,30.215-12.521c11.923,0,21.638,3.936,29.144,11.8
			c7.517,7.864,11.271,18.361,11.271,31.499C939.124,90.619,935.334,101.517,927.762,109.715z"/>
		<path fill="#272727" d="M71.823,54.62h-9.665v16.562h8.786c7.739,0,11.608-2.836,11.608-8.532
			C82.553,57.299,78.976,54.62,71.823,54.62z"/>
		<path fill="#272727" d="M807.279,54.495h-6.846v46.502h6.846c4.352,0,8.017-2.115,11.016-6.345
			c2.986-4.219,4.483-9.976,4.483-17.255c0-6.232-1.331-11.607-3.985-16.131C816.133,56.75,812.299,54.495,807.279,54.495z"/>
	</g>
</g>
</svg>
